<svg xmlns="http://www.w3.org/2000/svg" width="442" height="74" viewBox="0 0 442 74">
  <defs>
    <style>
      .cls-1 {
        fill: #fff;
        fill-rule: evenodd;
      }
    </style>
  </defs>
  <path id="ytfcloud" class="cls-1" d="M219.3,212.11l-23.786,40.326v28.931H178.2V253.32L154,212.11h19.715l13.513,24.744,13-24.744H219.3Zm19.483,69.257V225.319H218.419V212.11h58.032v13.209H256.089v56.048H238.781Zm90.937-56.048H300.793v13.07H327.4V251.6h-26.61v29.768H283.578V212.11h46.14v13.209Zm38.641,57.4q-15.5,0-24.62-9.418t-9.116-26.49q0-16.466,9.139-26.257t24.643-9.791a53.365,53.365,0,0,1,7.4.465,49.212,49.212,0,0,1,6.295,1.3,44.7,44.7,0,0,1,5.137,1.907q2.775,1.21,4.489,2.093V233.04h-1.76q-1.25-1.114-3.146-2.674a39.705,39.705,0,0,0-4.3-3.047,28.46,28.46,0,0,0-5.3-2.535,17.627,17.627,0,0,0-6.039-1.047,19.2,19.2,0,0,0-6.872,1.187,16.423,16.423,0,0,0-5.947,4.116,19.736,19.736,0,0,0-4.234,7.162,31.127,31.127,0,0,0-1.643,10.653,30.056,30.056,0,0,0,1.712,10.86,19.658,19.658,0,0,0,4.489,7.094,16.306,16.306,0,0,0,5.993,3.767,19.758,19.758,0,0,0,6.594,1.162A18.774,18.774,0,0,0,377.8,268.6a25.765,25.765,0,0,0,5.23-2.536,34.325,34.325,0,0,0,4.072-2.93q1.76-1.488,3.055-2.651h1.574v16.279q-1.9.885-4.4,2.024a40.067,40.067,0,0,1-5.137,1.93,55.264,55.264,0,0,1-6.062,1.488A45.936,45.936,0,0,1,368.359,282.716Zm48.824-1.349h-16.2V208.994h16.2v72.373Zm62.289-26.094q0,12.885-7.011,20.3T452.631,283q-12.727,0-19.784-7.418t-7.057-20.3q0-13.021,7.057-20.4t19.784-7.373q12.773,0,19.807,7.419T479.472,255.273Zm-16.614.094a33.06,33.06,0,0,0-.763-7.745,14.315,14.315,0,0,0-2.106-4.954,7.933,7.933,0,0,0-3.239-2.72,10.44,10.44,0,0,0-4.119-.768,10.929,10.929,0,0,0-3.934.674,7.659,7.659,0,0,0-3.239,2.581,14.1,14.1,0,0,0-2.221,4.978,31.846,31.846,0,0,0-.833,7.954,30.98,30.98,0,0,0,.787,7.744,14.748,14.748,0,0,0,2.036,4.721,7.66,7.66,0,0,0,3.239,2.652,10.788,10.788,0,0,0,4.3.837,10.279,10.279,0,0,0,3.957-.837,7.351,7.351,0,0,0,3.216-2.512,14.521,14.521,0,0,0,2.175-4.815A32.084,32.084,0,0,0,462.858,255.367Zm73.489,26h-16.2V275.6a44.22,44.22,0,0,1-7.729,5.372,17.866,17.866,0,0,1-8.376,1.837q-7.73,0-12.055-4.907t-4.328-14.768v-34h16.291v25.908q0,4.047.208,6.605a13.292,13.292,0,0,0,1,4.326,5.144,5.144,0,0,0,2.29,2.465,9.213,9.213,0,0,0,4.327.837,12.316,12.316,0,0,0,4.05-.837,17.278,17.278,0,0,0,4.327-2.279V229.133h16.2v52.234Zm59.653,0H579.8v-5.442q-1.573,1.3-3.587,2.791a23.371,23.371,0,0,1-3.54,2.233,19.955,19.955,0,0,1-3.841,1.395,19.275,19.275,0,0,1-4.536.465,16.308,16.308,0,0,1-14.068-7.4q-5.183-7.394-5.183-19.767a35.961,35.961,0,0,1,1.758-11.861,27.96,27.96,0,0,1,4.859-8.745,20.617,20.617,0,0,1,6.85-5.372,19.069,19.069,0,0,1,8.515-1.977,21.808,21.808,0,0,1,6.687.86,41.756,41.756,0,0,1,6.086,2.675V208.994H596v72.373Zm-16.2-14.418v-25.63a12.848,12.848,0,0,0-3.147-1,17.091,17.091,0,0,0-3.332-.4q-5.832,0-8.77,4.094t-2.938,11.441q0,7.724,2.337,11.163t7.566,3.442a11.921,11.921,0,0,0,4.3-.836A14.971,14.971,0,0,0,579.8,266.949Z" transform="translate(-154 -209)"/>
</svg>
